<?xml version="1.0" encoding="utf-8"?>
<!-- Generator: Adobe Illustrator 22.1.0, SVG Export Plug-In . SVG Version: 6.00 Build 0)  -->
<svg version="1.1" id="Layer_1" xmlns="http://www.w3.org/2000/svg" xmlns:xlink="http://www.w3.org/1999/xlink" x="0px" y="0px"
	 viewBox="0 0 228.5 228.5" style="enable-background:new 0 0 228.5 228.5;" xml:space="preserve">
<style type="text/css">
	.st0{clip-path:url(#SVGID_2_);fill:#171717;}
	.st1{clip-path:url(#SVGID_2_);fill:#E8E8E8;}
	.st2{clip-path:url(#SVGID_2_);fill:#FDE000;}
	.st3{clip-path:url(#SVGID_2_);fill:#F04D32;}
</style>
<g>
	<defs>
		<rect id="SVGID_1_" width="228.5" height="228.5"/>
	</defs>
	<clipPath id="SVGID_2_">
		<use xlink:href="#SVGID_1_"  style="overflow:visible;"/>
	</clipPath>
	<path class="st0" d="M228.5,114.2c0,63.1-51.1,114.2-114.2,114.2C51.1,228.5,0,177.3,0,114.2S51.1,0,114.2,0
		C177.3,0,228.5,51.1,228.5,114.2"/>
	<path class="st1" d="M85.9,21.4c-0.9,0.5-14.4,9-19.8,17.2c-0.9,1.3-3.2,3.7-4,7.3c-0.6,2.8,0.6,7.1-0.5,10
		c-1.9,3.8-13.7,16.5-15.3,19.6c0,0,0.7,1.6,10.7,0.4c2-0.3,8.8-10.6,12.9-15.7c1.2-1.5,13.8-3.5,14.1-5.5c0.2-1.9-17-4.7-16.9-7.8
		C67.2,43.1,85.3,22.2,85.9,21.4"/>
	<path class="st1" d="M71.4,46.7c0,0,5.2-24.1,45.6-32.6c4.9-1-21.1,8.4-25.9,17c-0.6,1,14-7.1,38.9-6.7c3.4,0-20.6,5.9-23.4,15
		c-0.3,0.9-5.7-0.9-13.5,0.4C83.3,41.7,71.4,46.7,71.4,46.7"/>
	<path class="st1" d="M111.9,41.3c0,0,1-11.3,20-10.9c1.6,0,7,8,5,12.1c-1.5,3-6.2,5.2-7.3,4.2c0,0,5.2-3.7-1-9.9
		c-1.2-1.2-5.4,1.1-6.7,3.5c-1.3,2.4-0.7,5.5-1.3,5.2C116.2,43.8,111.9,41.3,111.9,41.3"/>
	<path class="st1" d="M78.4,48.6c0,0,23.6-15.6,45.8,9.6c3.3,3.8-28.2-4.5-38.1,24.8c-1.7,5.2,4.7-9.4-23.3-7.9c0,0,8-13,10.4-13.4
		C109.8,56.3,80.8,50.7,78.4,48.6"/>
	<path class="st1" d="M62.9,98.6c0,0-15.4-5.8-16.7-19.1c-0.2-2.3,9.2,8.9,9.2,8.9c-0.2-3.1-2.8-10.3,0.5-9.7
		c6.8,1.3,10.5,3.7,17.1,0.2c1.9-1,13.5,10.5,11.3,21.3C66,94.6,62.9,98.6,62.9,98.6"/>
	<path class="st1" d="M63.8,99.7c1.8-1.4,16.8,0.3,18.9,1.5c1.4,0.8-0.1,16.9-18.6,13.9C61.5,114.6,63,100.3,63.8,99.7"/>
	<path class="st1" d="M88.8,100.2c0,0,31.2-16.9,35.1-20.4c6.2-5.6,3.1-16.9-11.8-14.5C86.8,69.3,88.1,97.2,88.8,100.2"/>
	<path class="st1" d="M126.5,84.1c0,0,3.9,11.7-9.8,27.8c-7.2,8.5-10.6,11.1-16.8,21.7c-13.3,22.6,2.1,43.8,4.5,47.6
		c5,8.2,14.7,21.9,11.6,30.8c-2.6,7.6,3.4-2.9-16.6-23c-14-14-16.9-17-20.4-24c-4.2-8.5-8.9-21.7,11.8-55.3
		c2.9-4.7,12-10.8,20.9-16.8C117.6,88.8,122.8,86,126.5,84.1"/>
	<path class="st2" d="M128.9,61.6c0,0,38.6,25.2,11.5,53.7c-14.9,15.6-21.7,24.4-23.8,36.2c-1.7,9.7,0.7,27.8,4,38.2
		c1.1,3.6-15.6-13.6-16.1-32.3c-0.4-13.1,5.2-25.8,13.3-37.4c3.6-5.1,14.9-14.5,16.8-34.3C135.6,75.3,128.9,61.6,128.9,61.6"/>
	<path class="st3" d="M138.4,27.5c0,0,55.7,40.2,41.6,74.5c-3.8,9.2-13.5,16.9-16.8,19.1c-16.7,11.5-26.8,20.2-37.6,47.4
		c-1.5,3.8-5.1-27.4,29.1-64c8.1-8.6,2.6-22.5-9.4-36.3c-11.3-13.1-11.6-13.7-11.6-13.7c31.4,5.3,36.1,40.1,36.9,37.5
		c0,0,0.3-24.8-29.4-43.1C136.8,46.3,146.2,48.4,138.4,27.5"/>
</g>
</svg>
